<?xml version="1.0" encoding="UTF-8" standalone="no"?>
<svg
   xmlns:dc="http://purl.org/dc/elements/1.1/"
   xmlns:cc="http://creativecommons.org/ns#"
   xmlns:rdf="http://www.w3.org/1999/02/22-rdf-syntax-ns#"
   xmlns:svg="http://www.w3.org/2000/svg"
   xmlns="http://www.w3.org/2000/svg"
   xmlns:sodipodi="http://sodipodi.sourceforge.net/DTD/sodipodi-0.dtd"
   xmlns:inkscape="http://www.inkscape.org/namespaces/inkscape"
   xml:space="preserve"
   width="3.6in"
   height="3.6in"
   version="1.1"
   style="shape-rendering:geometricPrecision; text-rendering:geometricPrecision; image-rendering:optimizeQuality; fill-rule:evenodd; clip-rule:evenodd"
   viewBox="0 0 3600 3600"
   id="svg102"
   sodipodi:docname="juccleaning.svg"><metadata
   id="metadata106"><rdf:RDF><cc:Work
       rdf:about=""><dc:format>image/svg+xml</dc:format><dc:type
         rdf:resource="http://purl.org/dc/dcmitype/StillImage" /></cc:Work></rdf:RDF></metadata><sodipodi:namedview
   pagecolor="#ffffff"
   bordercolor="#666666"
   borderopacity="1"
   objecttolerance="10"
   gridtolerance="10"
   guidetolerance="10"
   inkscape:pageopacity="0"
   inkscape:pageshadow="2"
   inkscape:window-width="640"
   inkscape:window-height="480"
   id="namedview104" />
 <defs
   id="defs4">
  <style
   type="text/css"
   id="style2">
   <![CDATA[
    .str0 {stroke:#003760;stroke-width:6.94;stroke-miterlimit:2.61313}
    .fil3 {fill:#FEFEFE}
    .fil6 {fill:#E6E7E8}
    .fil2 {fill:#003760}
    .fil5 {fill:#9ECF84}
    .fil7 {fill:#E0F0FF}
    .fil10 {fill:#A9ABAE;fill-rule:nonzero}
    .fil4 {fill:#003760;fill-rule:nonzero}
    .fil0 {fill:#003760;fill-rule:nonzero}
    .fil8 {fill:#9ECF84;fill-rule:nonzero}
    .fil1 {fill:#9ECF84;fill-rule:nonzero}
    .fil9 {fill:#CCE5BD;fill-rule:nonzero}
    .fil11 {fill:#E0F0FF;fill-rule:nonzero}
   ]]>
  </style>
 </defs>
 <g
   id="Layer_x0020_1">
  <metadata
   id="CorelCorpID_0Corel-Layer" />
  <g
   id="_745196594176">
   <path
   class="fil0"
   d="m 626.67,2493.03 v -157.37 c 0,-3.7 1.16,-6.82 3.47,-9.36 2.31,-2.54 5.31,-4.04 9.01,-4.5 33.74,-2.31 64.24,-14.1 91.51,-35.36 27.27,-21.26 47.95,-47.26 62.05,-77.99 14.09,-30.74 21.14,-62.74 21.14,-96.02 v -306.42 c 0,-3.7 1.27,-6.82 3.81,-9.36 2.54,-2.54 5.66,-3.81 9.36,-3.81 h 167.77 c 3.7,0 6.81,1.27 9.36,3.81 2.54,2.54 3.81,5.66 3.81,9.36 v 350.78 c 0,30.5 -3.7,60.89 -11.09,91.17 -7.39,30.27 -20.22,60.89 -38.48,91.85 -18.26,30.96 -41.02,58.35 -68.28,82.15 -27.27,23.8 -62.39,43.56 -105.37,59.28 -42.98,15.71 -91.05,24.03 -144.2,24.96 -3.7,0.46 -6.93,-0.69 -9.7,-3.47 -2.78,-2.77 -4.16,-6.01 -4.16,-9.7 z m 987.89,-700.19 c 3.7,0 6.81,1.27 9.36,3.81 2.54,2.54 3.81,5.66 3.81,9.36 v 416.65 c 0,27.27 -3,53.72 -9.01,79.37 -6.01,25.65 -16.41,51.07 -31.2,76.26 -14.79,25.19 -33.28,47.14 -55.46,65.86 -22.19,18.72 -50.84,33.74 -85.96,45.06 -35.13,11.32 -74.52,16.98 -118.2,16.98 -43.67,0 -82.96,-5.66 -117.85,-16.98 -34.89,-11.32 -63.55,-26.35 -85.96,-45.06 -22.42,-18.72 -41.02,-40.67 -55.81,-65.86 -14.79,-25.19 -25.19,-50.61 -31.2,-76.26 -6.01,-25.65 -9.01,-52.11 -9.01,-79.37 v -416.65 c 0,-3.7 1.27,-6.82 3.81,-9.36 2.54,-2.54 5.67,-3.81 9.36,-3.81 H 1209 c 3.7,0 6.93,1.27 9.71,3.81 2.77,2.54 4.16,5.66 4.16,9.36 v 420.11 c 0,14.33 1.73,27.85 5.2,40.56 3.46,12.71 9.13,24.84 16.98,36.39 7.86,11.56 18.95,20.69 33.28,27.39 14.33,6.7 30.96,10.05 49.91,10.05 18.95,0 35.59,-3.35 49.91,-10.05 14.33,-6.7 25.31,-15.83 32.93,-27.39 7.62,-11.55 13.28,-23.69 16.98,-36.39 3.7,-12.71 5.54,-26.23 5.54,-40.56 v -420.11 c 0,-3.7 1.27,-6.82 3.81,-9.36 2.54,-2.54 5.66,-3.81 9.36,-3.81 h 167.77 z m 545.59,453.39 133.8,106.07 c 2.77,2.31 4.39,5.31 4.85,9.01 0.46,3.7 -0.46,6.93 -2.78,9.7 -34.2,42.06 -75.91,75.1 -125.13,99.13 -49.22,24.04 -102.02,36.05 -158.41,36.05 -49.45,0 -96.59,-9.48 -141.42,-28.43 -44.83,-18.95 -83.54,-44.6 -116.12,-76.95 -32.58,-32.35 -58.46,-70.94 -77.64,-115.78 -19.18,-44.83 -28.77,-91.74 -28.77,-140.73 0,-48.99 9.59,-95.78 28.77,-140.39 19.18,-44.6 45.06,-83.07 77.64,-115.43 32.58,-32.35 71.29,-58.12 116.12,-77.3 44.83,-19.18 91.97,-28.77 141.42,-28.77 55.92,0 108.61,12.02 158.06,36.05 49.45,24.04 91.05,56.85 124.78,98.44 2.31,3.23 3.24,6.7 2.78,10.4 -0.46,3.7 -2.08,6.7 -4.85,9.01 l -133.8,105.37 c -2.77,2.31 -5.89,3.35 -9.36,3.12 -3.46,-0.23 -6.35,-1.73 -8.67,-4.5 -16.18,-18.02 -35.7,-32.81 -58.58,-44.37 -22.88,-11.55 -46.33,-17.33 -70.37,-17.33 -46.22,0 -85.5,16.18 -117.85,48.53 -32.35,32.35 -48.53,71.41 -48.53,117.16 0,45.75 16.17,84.81 48.53,117.16 32.35,32.35 71.63,48.53 117.85,48.53 24.03,0 47.6,-5.78 70.71,-17.33 23.11,-11.56 42.75,-26.57 58.93,-45.06 2.31,-2.78 5.2,-4.28 8.67,-4.51 3.47,-0.23 6.59,0.81 9.36,3.12 z"
   id="path7" />
   <path
   class="fil1"
   d="m 2805.56,1989.04 c 0,23.11 -6.7,47.83 -20.1,74.18 -13.41,26.34 -31.2,51.88 -53.38,76.6 -22.19,24.73 -44.25,47.49 -66.2,68.29 -21.95,20.8 -44.72,41.94 -68.29,63.43 -23.57,21.49 -40.21,37.78 -49.91,48.87 h 223.92 c 3.7,0 6.93,1.27 9.7,3.81 2.78,2.54 4.16,5.89 4.16,10.05 v 137.96 c 0,4.16 -1.39,7.51 -4.16,10.06 -2.77,2.54 -6.01,3.81 -9.7,3.81 h -438.13 c -4.16,0 -7.51,-1.27 -10.06,-3.81 -2.54,-2.54 -3.81,-5.89 -3.81,-10.06 v -147.66 c 0,-2.77 0.93,-5.31 2.77,-7.63 34.2,-48.99 73.72,-94.74 118.55,-137.26 10.17,-9.7 24.96,-23.22 44.37,-40.56 19.41,-17.33 34.55,-31.2 45.41,-41.59 10.86,-10.4 22.53,-22.3 35.01,-35.7 12.48,-13.41 21.61,-25.77 27.38,-37.09 5.78,-11.32 8.67,-21.84 8.67,-31.54 0,-12.02 -3.46,-21.84 -10.4,-29.46 -6.93,-7.63 -15.72,-12.71 -26.35,-15.25 -10.63,-2.54 -18.83,-4.16 -24.61,-4.85 -5.78,-0.69 -10.74,-0.81 -14.9,-0.35 -59.16,1.85 -110,7.63 -152.52,17.33 -4.16,0.93 -7.86,0.11 -11.09,-2.43 -3.23,-2.54 -5.08,-5.66 -5.54,-9.36 l -15.25,-142.12 c -0.46,-3.7 0.57,-7.05 3.12,-10.05 2.54,-3 5.66,-4.74 9.36,-5.2 69.79,-6.01 137.5,-9.01 203.12,-9.01 14.79,0 29.46,0.69 44.02,2.08 14.56,1.39 30.27,4.16 47.14,8.32 16.87,4.16 32.58,9.48 47.14,15.94 14.56,6.47 28.77,15.02 42.63,25.65 13.87,10.63 25.76,23 35.7,37.09 9.94,14.09 17.8,31.2 23.57,51.3 5.78,20.11 8.67,42.17 8.67,66.21 z m 287.01,252.34 c -49.91,0 -95.2,-10.28 -135.88,-30.85 -40.67,-20.57 -72.56,-48.3 -95.67,-83.19 -23.11,-34.89 -34.66,-73.37 -34.66,-115.43 0,-66.09 23.69,-119.12 71.06,-159.1 47.37,-39.98 117.16,-59.97 209.36,-59.97 92.2,0 161.99,19.99 209.36,59.97 47.37,39.98 71.06,93.01 71.06,159.1 0,50.84 -2.78,97.17 -8.32,139 -5.55,41.82 -12.48,78.11 -20.8,108.84 -8.32,30.74 -20.11,58 -35.35,81.8 -15.25,23.8 -29.93,43.68 -44.02,59.62 -14.09,15.94 -32.47,29.35 -55.11,40.21 -22.65,10.86 -42.75,19.18 -60.31,24.96 -17.56,5.78 -40.33,10.17 -68.29,13.17 -27.96,3 -51.07,4.85 -69.32,5.55 -18.26,0.69 -42.64,1.04 -73.14,1.04 -3.7,0 -6.93,-1.27 -9.71,-3.81 -2.77,-2.54 -4.16,-5.66 -4.16,-9.36 v -144.89 c 0,-3.7 1.62,-6.93 4.85,-9.71 3.23,-2.77 6.7,-3.7 10.4,-2.77 63.31,7.86 116.46,3.35 159.45,-13.52 42.98,-16.87 68.86,-41.71 77.64,-74.52 -32.35,9.24 -65.17,13.87 -98.44,13.87 z m 15.94,-289.78 c -25.42,0 -45.52,6.35 -60.31,19.06 -14.79,12.71 -22.19,28.31 -22.19,46.8 0,18.49 7.39,34.09 22.19,46.8 14.79,12.71 33.04,19.06 54.76,19.06 22.19,0 41.83,-6.47 58.93,-19.41 17.1,-12.94 25.65,-28.43 25.65,-46.45 0,-18.49 -7.28,-34.09 -21.84,-46.8 -14.56,-12.71 -33.62,-19.06 -57.19,-19.06 z"
   id="path9" />
  </g>
  <path
   class="fil0"
   d="m 901.32,2722.61 c -13.31,-18.54 -28.23,-32.14 -44.76,-40.85 -16.45,-8.72 -35.28,-13.11 -56.4,-13.11 -33.04,0 -61.35,12.27 -84.84,36.81 -23.49,24.54 -35.28,53.68 -35.28,87.49 0,35.97 11.71,66.3 35.07,90.91 23.35,24.68 51.66,37.02 85.05,37.02 20.57,0 39.18,-4.32 55.77,-12.9 16.59,-8.64 31.02,-21.47 43.29,-38.55 h 34.72 c -13.59,25.31 -31.86,44.9 -54.72,58.77 -22.87,13.8 -48.52,20.7 -76.96,20.7 -43.71,0 -80.17,-14.92 -109.38,-44.69 -29.21,-29.84 -43.78,-67.06 -43.78,-111.68 0,-20.85 3.98,-40.57 11.85,-59.26 7.87,-18.61 19.45,-35.42 34.72,-50.41 14.15,-14.15 30.05,-24.89 47.69,-32.14 17.64,-7.32 36.74,-10.94 57.3,-10.94 29.56,0 56.12,7.18 79.75,21.61 23.63,14.43 42.32,34.86 56.05,61.21 h -35.14 z m 332.07,220.44 h -133.85 v -297.4 h 29.28 v 268.54 h 104.57 z m 188.67,-163.97 h 125.07 v 29.28 h -125.07 v 105.83 h 125.07 v 28.86 h -154.35 v -297.4 h 154.35 v 29.28 h -125.07 z m 294.35,163.97 h -30.88 l 115.44,-297.4 h 35.14 l 115.03,297.4 h -31.23 l -35.56,-93.28 h -132.39 l -35.56,93.28 z M 1874.1,2823 1817.7,2673.67 1762.14,2823 Z m 417.54,84.49 -3.35,-261.84 h 28.86 v 297.4 h -35.13 l -163.13,-262.26 3.34,262.26 h -28.86 v -297.4 h 35.13 l 163.13,261.84 z m 231.26,35.56 h -29.28 v -297.4 h 29.28 z m 373.55,-35.56 -3.35,-261.84 h 28.86 v 297.4 h -35.13 l -163.13,-262.26 3.34,262.26 h -28.86 v -297.4 h 35.13 l 163.13,261.84 z m 306.14,-107.08 h 184.88 c -2.44,43.29 -18.06,78.85 -46.78,106.73 -28.72,27.81 -64,41.76 -105.76,41.76 -42.87,0 -78.78,-14.99 -107.71,-44.89 -28.93,-29.98 -43.43,-67.13 -43.43,-111.47 0,-20.85 3.98,-40.57 11.85,-59.26 7.87,-18.61 19.45,-35.42 34.72,-50.41 14.71,-14.57 30.95,-25.37 48.8,-32.48 17.85,-7.04 37.65,-10.6 59.46,-10.6 28.86,0 54.73,6.97 77.66,20.98 23.01,13.94 41.41,33.88 55.28,59.74 h -35.97 c -14.01,-17.85 -29.07,-31.02 -45.04,-39.53 -16.03,-8.5 -33.88,-12.76 -53.68,-12.76 -34.16,0 -63.09,12.2 -86.72,36.67 -23.63,24.4 -35.42,53.82 -35.42,88.12 0,36.46 11.78,66.93 35.35,91.32 23.56,24.33 52.63,36.53 87.21,36.53 27.26,0 51.66,-8.71 73.27,-26.21 21.61,-17.43 35.63,-40.09 42.18,-67.9 h -150.16 v -26.35 z"
   id="path12" />
  <path
   class="fil2"
   d="m 2901.1,1473.02 c 45.33,0 82.08,36.75 82.08,82.08 0,45.33 -36.75,82.08 -82.08,82.08 -45.33,0 -82.08,-36.75 -82.08,-82.08 0,-45.33 36.75,-82.08 82.08,-82.08 z"
   id="path14" />
  <path
   id="circle16"
   style="fill:#003760"
   d="m 3119.85,1414.53 a 50.580002,50.580002 0 0 1 -50.58,50.58 50.580002,50.580002 0 0 1 -50.58,-50.58 50.580002,50.580002 0 0 1 50.58,-50.58 50.580002,50.580002 0 0 1 50.58,50.58 z"
   class="fil2" />
  <path
   class="fil2"
   d="m 3088.19,1562.35 c 21.02,0 38.06,17.04 38.06,38.06 0,21.02 -17.04,38.06 -38.06,38.06 -21.02,0 -38.06,-17.04 -38.06,-38.06 0,-21.02 17.04,-38.06 38.06,-38.06 z"
   id="path18" />
  <path
   class="fil3"
   d="m 2902.74,1473.13 c 32.48,0 58.8,26.33 58.8,58.8 0,32.48 -26.33,58.8 -58.8,58.8 -32.48,0 -58.8,-26.33 -58.8,-58.8 0,-32.47 26.33,-58.8 58.8,-58.8 z"
   id="path20" />
  <path
   id="circle22"
   style="fill:#fefefe"
   d="m 3106.51,1400.25 a 36.23,36.23 0 0 1 -36.23,36.23 36.23,36.23 0 0 1 -36.23,-36.23 36.23,36.23 0 0 1 36.23,-36.23 36.23,36.23 0 0 1 36.23,36.23 z"
   class="fil3" />
  <path
   class="fil3"
   d="m 3088.95,1562.4 c 15.06,0 27.27,12.21 27.27,27.27 0,15.06 -12.21,27.26 -27.27,27.26 -15.06,0 -27.26,-12.2 -27.26,-27.26 0,-15.06 12.2,-27.27 27.26,-27.27 z"
   id="path24" />
  <path
   id="home_x0020__x0028_1_x0029_.svg"
   class="fil4"
   d="m 2091.46,983.65 c -0.02,-0.02 -0.05,-0.04 -0.07,-0.06 L 1685.55,599.08 c -17.3,-16.4 -40.3,-25.43 -64.76,-25.43 -24.46,0 -47.46,9.03 -64.77,25.42 l -405.63,384.32 c -0.14,0.13 -0.28,0.26 -0.41,0.39 -35.52,33.85 -35.46,88.78 0.18,122.54 16.28,15.44 37.78,24.38 60.78,25.31 0.93,0.09 1.87,0.13 2.82,0.13 h 16.18 v 195.75 c 120.22,-35.97 222.48,5.84 314.93,5.84 88,0 254.85,100.43 273.89,100.43 l 194.08,57.56 -1.18,-359.59 h 15 c 24.46,0 47.46,-9.03 64.77,-25.43 35.68,-33.82 35.69,-88.84 0.05,-122.69 z" />
  <path
   class="fil2 str0"
   d="m 1995.92,1437.61 -720.16,-202.15 c -81.95,16.48 -165.18,101.78 -234.56,206.27 466.26,-331.48 781.5,172.48 1229.34,79.56 -100.87,-5.43 -189.48,-40.5 -274.63,-83.69 z"
   id="path27" />
  <path
   id="rect29"
   style="fill:#003760"
   d="m 1243.22,762.07001 h 58.6 c 14.4539,0 26.09,16.8365 26.09,37.75 V 988.34 c 0,20.9135 -11.6361,37.75 -26.09,37.75 h -58.6 c -14.4539,0 -26.09,-16.8365 -26.09,-37.75 V 799.82001 c 0,-20.9135 11.6361,-37.75 26.09,-37.75 z"
   class="fil2" />
  <path
   class="fil5"
   d="m 1641.38,1491.49 c -121.8,-64.96 -270.7,-96.33 -458.51,-79.56 119.96,-50.63 294.19,-64.59 463.87,14.46 295.97,137.89 621.15,240.55 889.7,47.92 -152.31,285.81 -441.01,278.28 -895.06,17.19 z"
   id="path31" />
  <path
   class="fil5"
   d="m 1915.03,650.85 c -27.97,-33.24 -67.8,-59.85 -124.62,-76.94 40.98,-0.74 93.5,15.59 133.81,58.56 70.31,74.95 153.28,143.03 254.29,118.21 -77.97,65.65 -161.43,29.63 -263.48,-99.82 z"
   id="path33" />
  <path
   class="fil5"
   d="m 1972.31,529.11 c -17.66,-20.99 -42.81,-37.8 -78.69,-48.59 25.87,-0.47 59.04,9.84 84.5,36.98 44.4,47.33 96.79,90.32 160.57,74.65 -49.24,41.46 -101.94,18.72 -166.38,-63.03 z"
   id="path35" />
  <path
   class="fil6"
   d="m 1768.85,949.26 h -113.86 c -12.53,0 -22.78,10.25 -22.78,22.78 v 138.51 c 0,12.53 10.25,22.78 22.78,22.78 h 113.86 c 12.53,0 22.77,-10.25 22.77,-22.78 V 972.03 c 0,-12.53 -10.24,-22.77 -22.77,-22.77 z"
   id="path37" />
  <path
   class="fil5"
   d="m 1577.54,949.26 h -113.86 c -12.53,0 -22.78,10.25 -22.78,22.78 v 138.51 c 0,12.53 10.25,22.78 22.78,22.78 h 113.86 c 12.53,0 22.77,-10.25 22.77,-22.78 V 972.03 c 0,-12.53 -10.24,-22.77 -22.77,-22.77 z"
   id="path39" />
  <g
   id="_709385912432">
   <path
   class="fil2"
   d="m 2924.34,536.81 c 107.47,82.24 176.8,211.82 176.8,357.6 0,113.52 -42.04,217.2 -111.39,296.38 l -76.85,-92.69 c 42.69,-56.68 68.01,-127.19 68.01,-203.61 0,-101.64 -44.78,-192.81 -115.66,-254.91 l 59.09,-102.78 z"
   id="path41" />
   <path
   class="fil5"
   d="m 2651.07,444.35 c 76.16,0 147.89,18.94 210.76,52.33 l -57.64,100.26 c -48.14,-26.27 -103.35,-41.2 -162.05,-41.2 -187.09,0 -338.76,151.67 -338.76,338.76 0,187.09 151.67,338.76 338.76,338.76 83.74,0 160.36,-30.4 219.49,-80.74 l 74.67,90.04 c -77.65,63.69 -176.97,101.93 -285.23,101.93 -248.57,0 -450.07,-201.5 -450.07,-450.07 0,-248.57 201.5,-450.07 450.07,-450.07 z"
   id="path43" />
  </g>
  <path
   id="circle46"
   style="fill:#e0f0ff"
   d="m 2940.2601,894.41998 a 289.19,289.19 0 0 1 -289.19,289.19002 289.19,289.19 0 0 1 -289.19,-289.19002 289.19,289.19 0 0 1 289.19,-289.19 289.19,289.19 0 0 1 289.19,289.19 z"
   class="fil7" />
  <path
   class="fil4"
   d="m 2781.18,770.49 v -16.54 c 9.13,0 16.54,-7.41 16.54,-16.54 v -41.34 h 16.54 v 41.34 c 0,18.26 -14.81,33.07 -33.07,33.07 v 0 z"
   id="path48" />
  <path
   id="polygon50"
   style="fill:#9ecf84;fill-rule:nonzero"
   d="m 2491.78,894.51 16.54,214.98 h 264.59 l 16.53,-214.98 z"
   class="fil8" />
  <path
   id="polygon52"
   style="fill:#003760;fill-rule:nonzero"
   d="M 2640.61,894.51 H 2475.25 V 844.9 h 165.36 z"
   class="fil4" />
  <path
   id="polygon54"
   style="fill:#003760;fill-rule:nonzero"
   d="m 2805.98,894.51 h -66.15 V 844.9 h 66.15 z"
   class="fil4" />
  <path
   id="polygon56"
   style="fill:#cce5bd;fill-rule:nonzero"
   d="m 2739.83,977.2 h -99.22 V 844.9 h 99.22 z"
   class="fil9" />
  <path
   id="polygon58"
   style="fill:#a9abae;fill-rule:nonzero"
   d="m 2715.03,977.2 h -16.54 v -82.69 h 16.54 z"
   class="fil10" />
  <path
   id="polygon60"
   style="fill:#a9abae;fill-rule:nonzero"
   d="m 2681.96,977.2 h -16.54 v -49.61 h 16.54 z"
   class="fil10" />
  <g
   id="_709385902448">
   <path
   id="polygon62"
   style="fill:#e0f0ff;fill-rule:nonzero"
   d="M 2764.64,869.71 V 844.9 h 16.54 v 24.81 z"
   class="fil11" />
   <path
   id="polygon64"
   style="fill:#e0f0ff;fill-rule:nonzero"
   d="M 2599.27,869.71 V 844.9 h 16.54 v 24.81 z"
   class="fil11" />
   <path
   id="polygon66"
   style="fill:#e0f0ff;fill-rule:nonzero"
   d="M 2566.2,869.71 V 844.9 h 16.54 v 24.81 z"
   class="fil11" />
   <path
   id="polygon68"
   style="fill:#e0f0ff;fill-rule:nonzero"
   d="M 2533.13,869.71 V 844.9 h 16.53 v 24.81 z"
   class="fil11" />
   <path
   id="polygon70"
   style="fill:#e0f0ff;fill-rule:nonzero"
   d="M 2500.05,869.71 V 844.9 h 16.54 v 24.81 z"
   class="fil11" />
  </g>
  <path
   id="polygon73"
   style="fill:#003760;fill-rule:nonzero"
   d="m 2690.22,737.41 h 66.15 v 33.08 h -66.15 z"
   class="fil4" />
  <path
   id="polygon75"
   style="fill:#003760;fill-rule:nonzero"
   d="M 2839.06,671.27 2805.98,663 v 49.61 l 33.08,-8.27 z"
   class="fil4" />
  <path
   class="fil8"
   d="m 2723.3,663 h 82.68 v 49.61 h -24.8 l -24.81,24.8 h -66.15 v -24.8 h -33.07 c 0,-27.4 33.07,-49.61 66.15,-49.61 z"
   id="path77" />
  <path
   id="polygon79"
   style="fill:#9ecf84;fill-rule:nonzero"
   d="m 2756.37,770.49 h -66.15 l -16.53,74.41 h 99.22 z"
   class="fil8" />
  <path
   class="fil4"
   d="m 2772.91,1109.49 h -264.59 c 1.01,17.83 15.25,32.06 33.07,33.07 h 198.44 c 17.83,-1.01 32.06,-15.25 33.07,-33.07 v 0 z"
   id="path81" />
  <path
   class="fil9"
   d="m 2566.2,1084.69 h -24.81 c -4.17,0 -7.69,-3.11 -8.2,-7.24 l -8.27,-66.15 16.41,-2.05 7.37,58.91 h 17.5 v 16.54 z"
   id="path83" />
  <path
   id="polygon85"
   style="fill:#cce5bd;fill-rule:nonzero"
   d="m 2599.27,1084.69 h -16.53 v -16.54 h 16.53 z"
   class="fil9" />
  <path
   id="polygon87"
   style="fill:#cce5bd;fill-rule:nonzero"
   d="m 2632.35,1084.69 h -16.54 v -16.54 h 16.54 z"
   class="fil9" />
  <path
   id="circle89"
   style="fill:#003760"
   d="m 2550.67,763.65002 a 41.439999,41.439999 0 0 1 -41.44,41.44 41.439999,41.439999 0 0 1 -41.44,-41.44 41.439999,41.439999 0 0 1 41.44,-41.43999 41.439999,41.439999 0 0 1 41.44,41.43999 z"
   class="fil2" />
  <path
   id="circle91"
   style="fill:#003760"
   d="m 2619.6699,692.69 a 25.530001,25.530001 0 0 1 -25.53,25.53 25.530001,25.530001 0 0 1 -25.53,-25.53 25.530001,25.530001 0 0 1 25.53,-25.53 25.530001,25.530001 0 0 1 25.53,25.53 z"
   class="fil2" />
  <path
   id="circle93"
   style="fill:#003760"
   d="m 2622.8899,786.53003 a 19.209999,19.209999 0 0 1 -19.21,19.21 19.209999,19.209999 0 0 1 -19.21,-19.21 19.209999,19.209999 0 0 1 19.21,-19.21 19.209999,19.209999 0 0 1 19.21,19.21 z"
   class="fil2" />
  <path
   id="circle95"
   style="fill:#e0f0ff"
   d="m 2539.7501,751.96002 a 29.690001,29.690001 0 0 1 -29.69,29.69 29.690001,29.690001 0 0 1 -29.69,-29.69 29.690001,29.690001 0 0 1 29.69,-29.69 29.690001,29.690001 0 0 1 29.69,29.69 z"
   class="fil7" />
  <path
   id="circle97"
   style="fill:#e0f0ff"
   d="m 2612.9399,685.47998 a 18.290001,18.290001 0 0 1 -18.29,18.29 18.290001,18.290001 0 0 1 -18.29,-18.29 18.290001,18.290001 0 0 1 18.29,-18.29 18.290001,18.290001 0 0 1 18.29,18.29 z"
   class="fil7" />
  <path
   id="circle99"
   style="fill:#e0f0ff"
   d="m 2617.8301,781.10999 a 13.76,13.76 0 0 1 -13.76,13.76 13.76,13.76 0 0 1 -13.76,-13.76 13.76,13.76 0 0 1 13.76,-13.76 13.76,13.76 0 0 1 13.76,13.76 z"
   class="fil7" />
 </g>
</svg>
