<svg xmlns:dc="http://purl.org/dc/elements/1.1/" xmlns:cc="http://creativecommons.org/ns#" xmlns:rdf="http://www.w3.org/1999/02/22-rdf-syntax-ns#" xmlns:svg="http://www.w3.org/2000/svg" xmlns="http://www.w3.org/2000/svg" xmlns:sodipodi="http://sodipodi.sourceforge.net/DTD/sodipodi-0.dtd" xmlns:inkscape="http://www.inkscape.org/namespaces/inkscape" xml:space="preserve" width="2761" height="2505" version="1.1" style="shape-rendering: geometricprecision; text-rendering: geometricprecision; fill-rule: evenodd; clip-rule: evenodd;" sodipodi:docname="juccleaning.svg"><rect id="backgroundrect" width="100%" height="100%" x="0" y="0" fill="none" stroke="none"/><metadata id="metadata106"><rdf:RDF><cc:Work rdf:about=""><dc:format>image/svg+xml</dc:format><dc:type rdf:resource="http://purl.org/dc/dcmitype/StillImage"/></cc:Work></rdf:RDF></metadata><sodipodi:namedview pagecolor="#ffffff" bordercolor="#666666" borderopacity="1" objecttolerance="10" gridtolerance="10" guidetolerance="10" inkscape:pageopacity="0" inkscape:pageshadow="2" inkscape:window-width="640" inkscape:window-height="480" id="namedview104"/>
 <defs id="defs4">
  <style type="text/css" id="style2">
   <![CDATA[
    .str0 {stroke:#003760;stroke-width:6.94;stroke-miterlimit:2.61313}
    .fil3 {fill:#FEFEFE}
    .fil6 {fill:#E6E7E8}
    .fil2 {fill:#003760}
    .fil5 {fill:#9ECF84}
    .fil7 {fill:#E0F0FF}
    .fil10 {fill:#A9ABAE;fill-rule:nonzero}
    .fil4 {fill:#003760;fill-rule:nonzero}
    .fil0 {fill:#003760;fill-rule:nonzero}
    .fil8 {fill:#9ECF84;fill-rule:nonzero}
    .fil1 {fill:#9ECF84;fill-rule:nonzero}
    .fil9 {fill:#CCE5BD;fill-rule:nonzero}
    .fil11 {fill:#E0F0FF;fill-rule:nonzero}
   ]]>
  </style>
 </defs>
 
<g class="currentLayer" style=""><title>Layer 1</title><g id="Layer_x0020_1" class="">
  <metadata id="CorelCorpID_0Corel-Layer" transform="translate(-626.6699829101562,-444.3500061035156) "/>
  <g id="_745196594176">
   <path class="fil0" d="m0.00001708984370907274,2048.6799938964846 v-157.37 c0,-3.7 1.1600000000000001,-6.82 3.47,-9.36 c2.31,-2.54 5.3100000000000005,-4.04 9.01,-4.5 c33.74,-2.31 64.24,-14.1 91.51,-35.36 c27.27,-21.26 47.95,-47.26 62.05,-77.99 c14.09,-30.74 21.14,-62.74 21.14,-96.02 v-306.42 c0,-3.7 1.27,-6.82 3.81,-9.36 c2.54,-2.54 5.66,-3.81 9.36,-3.81 h167.77 c3.7,0 6.8100000000000005,1.27 9.36,3.81 c2.54,2.54 3.81,5.66 3.81,9.36 v350.78 c0,30.5 -3.7,60.89 -11.09,91.17 c-7.39,30.27 -20.22,60.89 -38.48,91.85 c-18.26,30.96 -41.02,58.35 -68.28,82.15 c-27.27,23.8 -62.39,43.56 -105.37,59.28 c-42.98,15.71 -91.05,24.03 -144.2,24.96 c-3.7,0.46 -6.93,-0.6900000000000002 -9.7,-3.47 c-2.7800000000000002,-2.77 -4.16,-6.01 -4.16,-9.7 zm987.89,-700.19 c3.7,0 6.8100000000000005,1.27 9.36,3.81 c2.54,2.54 3.81,5.66 3.81,9.36 v416.65 c0,27.27 -3,53.72 -9.01,79.37 c-6.01,25.65 -16.41,51.07 -31.2,76.26 c-14.79,25.19 -33.28,47.14 -55.46,65.86 c-22.19,18.72 -50.84,33.74 -85.96,45.06 c-35.13,11.32 -74.52,16.98 -118.2,16.98 c-43.67,0 -82.96,-5.66 -117.85,-16.98 c-34.89,-11.32 -63.55,-26.35 -85.96,-45.06 c-22.42,-18.72 -41.02,-40.67 -55.81,-65.86 c-14.79,-25.19 -25.19,-50.61 -31.2,-76.26 c-6.01,-25.65 -9.01,-52.11 -9.01,-79.37 v-416.65 c0,-3.7 1.27,-6.82 3.81,-9.36 c2.54,-2.54 5.67,-3.81 9.36,-3.81 H582.3300170898438 c3.7,0 6.93,1.27 9.71,3.81 c2.77,2.54 4.16,5.66 4.16,9.36 v420.11 c0,14.33 1.73,27.85 5.2,40.56 c3.46,12.71 9.13,24.84 16.98,36.39 c7.86,11.56 18.95,20.69 33.28,27.39 c14.33,6.7 30.96,10.05 49.91,10.05 c18.95,0 35.59,-3.35 49.91,-10.05 c14.33,-6.7 25.31,-15.83 32.93,-27.39 c7.62,-11.55 13.28,-23.69 16.98,-36.39 c3.7,-12.71 5.54,-26.23 5.54,-40.56 v-420.11 c0,-3.7 1.27,-6.82 3.81,-9.36 c2.54,-2.54 5.66,-3.81 9.36,-3.81 h167.77 zm545.59,453.39 l133.8,106.07 c2.77,2.31 4.39,5.3100000000000005 4.85,9.01 c0.46,3.7 -0.46,6.93 -2.7800000000000002,9.7 c-34.2,42.06 -75.91,75.1 -125.13,99.13 c-49.22,24.04 -102.02,36.05 -158.41,36.05 c-49.45,0 -96.59,-9.48 -141.42,-28.43 c-44.83,-18.95 -83.54,-44.6 -116.12,-76.95 c-32.58,-32.35 -58.46,-70.94 -77.64,-115.78 c-19.18,-44.83 -28.77,-91.74 -28.77,-140.73 c0,-48.99 9.59,-95.78 28.77,-140.39 c19.18,-44.6 45.06,-83.07 77.64,-115.43 c32.58,-32.35 71.29,-58.12 116.12,-77.3 c44.83,-19.18 91.97,-28.77 141.42,-28.77 c55.92,0 108.61,12.02 158.06,36.05 c49.45,24.04 91.05,56.85 124.78,98.44 c2.31,3.23 3.24,6.7 2.7800000000000002,10.4 c-0.46,3.7 -2.08,6.7 -4.85,9.01 l-133.8,105.37 c-2.77,2.31 -5.890000000000001,3.35 -9.36,3.12 c-3.46,-0.23 -6.35,-1.73 -8.67,-4.5 c-16.18,-18.02 -35.7,-32.81 -58.58,-44.37 c-22.88,-11.55 -46.33,-17.33 -70.37,-17.33 c-46.22,0 -85.5,16.18 -117.85,48.53 c-32.35,32.35 -48.53,71.41 -48.53,117.16 c0,45.75 16.17,84.81 48.53,117.16 c32.35,32.35 71.63,48.53 117.85,48.53 c24.03,0 47.6,-5.78 70.71,-17.33 c23.11,-11.56 42.75,-26.57 58.93,-45.06 c2.31,-2.7800000000000002 5.2,-4.28 8.67,-4.51 c3.47,-0.23 6.59,0.81 9.36,3.12 z" id="path7"/>
   <path class="fil1" d="m2178.8900170898437,1544.6899938964843 c0,23.11 -6.7,47.83 -20.1,74.18 c-13.41,26.34 -31.2,51.88 -53.38,76.6 c-22.19,24.73 -44.25,47.49 -66.2,68.29 c-21.95,20.8 -44.72,41.94 -68.29,63.43 c-23.57,21.49 -40.21,37.78 -49.91,48.87 h223.92 c3.7,0 6.93,1.27 9.7,3.81 c2.7800000000000002,2.54 4.16,5.890000000000001 4.16,10.05 v137.96 c0,4.16 -1.3900000000000001,7.51 -4.16,10.06 c-2.77,2.54 -6.01,3.81 -9.7,3.81 h-438.13 c-4.16,0 -7.51,-1.27 -10.06,-3.81 c-2.54,-2.54 -3.81,-5.890000000000001 -3.81,-10.06 v-147.66 c0,-2.77 0.93,-5.3100000000000005 2.77,-7.63 c34.2,-48.99 73.72,-94.74 118.55,-137.26 c10.17,-9.7 24.96,-23.22 44.37,-40.56 c19.41,-17.33 34.55,-31.2 45.41,-41.59 c10.86,-10.4 22.53,-22.3 35.01,-35.7 c12.48,-13.41 21.61,-25.77 27.38,-37.09 c5.78,-11.32 8.67,-21.84 8.67,-31.54 c0,-12.02 -3.46,-21.84 -10.4,-29.46 c-6.93,-7.63 -15.72,-12.71 -26.35,-15.25 c-10.63,-2.54 -18.83,-4.16 -24.61,-4.85 c-5.78,-0.6900000000000002 -10.74,-0.81 -14.9,-0.35000000000000003 c-59.16,1.85 -110,7.63 -152.52,17.33 c-4.16,0.93 -7.86,0.11000000000000001 -11.09,-2.43 c-3.23,-2.54 -5.08,-5.66 -5.54,-9.36 l-15.25,-142.12 c-0.46,-3.7 0.5700000000000001,-7.05 3.12,-10.05 c2.54,-3 5.66,-4.74 9.36,-5.2 c69.79,-6.01 137.5,-9.01 203.12,-9.01 c14.79,0 29.46,0.6900000000000002 44.02,2.08 c14.56,1.3900000000000001 30.27,4.16 47.14,8.32 c16.87,4.16 32.58,9.48 47.14,15.94 c14.56,6.47 28.77,15.02 42.63,25.65 c13.870000000000001,10.63 25.76,23 35.7,37.09 c9.94,14.09 17.8,31.2 23.57,51.3 c5.78,20.11 8.67,42.17 8.67,66.21 zm287.01,252.34 c-49.91,0 -95.2,-10.28 -135.88,-30.85 c-40.67,-20.57 -72.56,-48.3 -95.67,-83.19 c-23.11,-34.89 -34.66,-73.37 -34.66,-115.43 c0,-66.09 23.69,-119.12 71.06,-159.1 c47.37,-39.98 117.16,-59.97 209.36,-59.97 c92.2,0 161.99,19.99 209.36,59.97 c47.37,39.98 71.06,93.01 71.06,159.1 c0,50.84 -2.7800000000000002,97.17 -8.32,139 c-5.55,41.82 -12.48,78.11 -20.8,108.84 c-8.32,30.74 -20.11,58 -35.35,81.8 c-15.25,23.8 -29.93,43.68 -44.02,59.62 c-14.09,15.94 -32.47,29.35 -55.11,40.21 c-22.65,10.86 -42.75,19.18 -60.31,24.96 c-17.56,5.78 -40.33,10.17 -68.29,13.17 c-27.96,3 -51.07,4.85 -69.32,5.55 c-18.26,0.6900000000000002 -42.64,1.04 -73.14,1.04 c-3.7,0 -6.93,-1.27 -9.71,-3.81 c-2.77,-2.54 -4.16,-5.66 -4.16,-9.36 v-144.89 c0,-3.7 1.62,-6.93 4.85,-9.71 c3.23,-2.77 6.7,-3.7 10.4,-2.77 c63.31,7.86 116.46,3.35 159.45,-13.52 c42.98,-16.87 68.86,-41.71 77.64,-74.52 c-32.35,9.24 -65.17,13.870000000000001 -98.44,13.870000000000001 zm15.94,-289.78 c-25.42,0 -45.52,6.35 -60.31,19.06 c-14.79,12.71 -22.19,28.31 -22.19,46.8 c0,18.49 7.39,34.09 22.19,46.8 c14.79,12.71 33.04,19.06 54.76,19.06 c22.19,0 41.83,-6.47 58.93,-19.41 c17.1,-12.94 25.65,-28.43 25.65,-46.45 c0,-18.49 -7.28,-34.09 -21.84,-46.8 c-14.56,-12.71 -33.62,-19.06 -57.19,-19.06 z" id="path9"/>
  </g>
  <path class="fil0" d="m274.6500170898438,2278.2599938964845 c-13.31,-18.54 -28.23,-32.14 -44.76,-40.85 c-16.45,-8.72 -35.28,-13.11 -56.4,-13.11 c-33.04,0 -61.35,12.27 -84.84,36.81 c-23.49,24.54 -35.28,53.68 -35.28,87.49 c0,35.97 11.71,66.3 35.07,90.91 c23.35,24.68 51.66,37.02 85.05,37.02 c20.57,0 39.18,-4.32 55.77,-12.9 c16.59,-8.64 31.02,-21.47 43.29,-38.55 h34.72 c-13.59,25.31 -31.86,44.9 -54.72,58.77 c-22.87,13.8 -48.52,20.7 -76.96,20.7 c-43.71,0 -80.17,-14.92 -109.38,-44.69 c-29.21,-29.84 -43.78,-67.06 -43.78,-111.68 c0,-20.85 3.98,-40.57 11.85,-59.26 c7.87,-18.61 19.45,-35.42 34.72,-50.41 c14.15,-14.15 30.05,-24.89 47.69,-32.14 c17.64,-7.32 36.74,-10.94 57.3,-10.94 c29.56,0 56.12,7.18 79.75,21.61 c23.63,14.43 42.32,34.86 56.05,61.21 h-35.14 zm332.07,220.44 h-133.85 v-297.4 h29.28 v268.54 h104.57 zm188.67,-163.97 h125.07 v29.28 h-125.07 v105.83 h125.07 v28.86 h-154.35 v-297.4 h154.35 v29.28 h-125.07 zm294.35,163.97 h-30.88 l115.44,-297.4 h35.14 l115.03,297.4 h-31.23 l-35.56,-93.28 h-132.39 l-35.56,93.28 zM1247.4300170898437,2378.6499938964844 L1191.0300170898438,2229.3199938964844 L1135.4700170898439,2378.6499938964844 zm417.54,84.49 l-3.35,-261.84 h28.86 v297.4 h-35.13 l-163.13,-262.26 l3.34,262.26 h-28.86 v-297.4 h35.13 l163.13,261.84 zm231.26,35.56 h-29.28 v-297.4 h29.28 zm373.55,-35.56 l-3.35,-261.84 h28.86 v297.4 h-35.13 l-163.13,-262.26 l3.34,262.26 h-28.86 v-297.4 h35.13 l163.13,261.84 zm306.14,-107.08 h184.88 c-2.44,43.29 -18.06,78.85 -46.78,106.73 c-28.72,27.81 -64,41.76 -105.76,41.76 c-42.87,0 -78.78,-14.99 -107.71,-44.89 c-28.93,-29.98 -43.43,-67.13 -43.43,-111.47 c0,-20.85 3.98,-40.57 11.85,-59.26 c7.87,-18.61 19.45,-35.42 34.72,-50.41 c14.71,-14.57 30.95,-25.37 48.8,-32.48 c17.85,-7.04 37.65,-10.6 59.46,-10.6 c28.86,0 54.73,6.97 77.66,20.98 c23.01,13.94 41.41,33.88 55.28,59.74 h-35.97 c-14.01,-17.85 -29.07,-31.02 -45.04,-39.53 c-16.03,-8.5 -33.88,-12.76 -53.68,-12.76 c-34.16,0 -63.09,12.2 -86.72,36.67 c-23.63,24.4 -35.42,53.82 -35.42,88.12 c0,36.46 11.78,66.93 35.35,91.32 c23.56,24.33 52.63,36.53 87.21,36.53 c27.26,0 51.66,-8.71 73.27,-26.21 c21.61,-17.43 35.63,-40.09 42.18,-67.9 h-150.16 v-26.35 z" id="path12"/>
  <path class="fil2" d="m2274.4300170898437,1028.6699938964844 c45.33,0 82.08,36.75 82.08,82.08 c0,45.33 -36.75,82.08 -82.08,82.08 c-45.33,0 -82.08,-36.75 -82.08,-82.08 c0,-45.33 36.75,-82.08 82.08,-82.08 z" id="path14"/>
  <path id="circle16" style="fill:#003760" d="m2493.1800170898437,970.1799938964843 a50.580002,50.580002 0 0 1 -50.58,50.58 a50.580002,50.580002 0 0 1 -50.58,-50.58 a50.580002,50.580002 0 0 1 50.58,-50.58 a50.580002,50.580002 0 0 1 50.58,50.58 z" class="fil2"/>
  <path class="fil2" d="m2461.520017089844,1117.9999938964843 c21.02,0 38.06,17.04 38.06,38.06 c0,21.02 -17.04,38.06 -38.06,38.06 c-21.02,0 -38.06,-17.04 -38.06,-38.06 c0,-21.02 17.04,-38.06 38.06,-38.06 z" id="path18"/>
  <path class="fil3" d="m2276.0700170898435,1028.7799938964845 c32.48,0 58.8,26.33 58.8,58.8 c0,32.48 -26.33,58.8 -58.8,58.8 c-32.48,0 -58.8,-26.33 -58.8,-58.8 c0,-32.47 26.33,-58.8 58.8,-58.8 z" id="path20"/>
  <path id="circle22" style="fill:#fefefe" d="m2479.840017089844,955.8999938964844 a36.23,36.23 0 0 1 -36.23,36.23 a36.23,36.23 0 0 1 -36.23,-36.23 a36.23,36.23 0 0 1 36.23,-36.23 a36.23,36.23 0 0 1 36.23,36.23 z" class="fil3"/>
  <path class="fil3" d="m2462.2800170898436,1118.0499938964845 c15.06,0 27.27,12.21 27.27,27.27 c0,15.06 -12.21,27.26 -27.27,27.26 c-15.06,0 -27.26,-12.2 -27.26,-27.26 c0,-15.06 12.2,-27.27 27.26,-27.27 z" id="path24"/>
  <path id="home_x0020__x0028_1_x0029_.svg" class="fil4" d="m1464.7900170898438,539.2999938964844 c-0.020000000000000004,-0.020000000000000004 -0.05000000000000001,-0.04000000000000001 -0.07,-0.06000000000000001 L1058.8800170898437,154.72999389648442 c-17.3,-16.4 -40.3,-25.43 -64.76,-25.43 c-24.46,0 -47.46,9.03 -64.77,25.42 l-405.63,384.32 c-0.14,0.13 -0.28,0.26 -0.41000000000000003,0.39000000000000007 c-35.52,33.85 -35.46,88.78 0.18000000000000002,122.54 c16.28,15.44 37.78,24.38 60.78,25.31 c0.93,0.09000000000000002 1.87,0.13 2.8200000000000003,0.13 h16.18 v195.75 c120.22,-35.97 222.48,5.84 314.93,5.84 c88,0 254.85,100.43 273.89,100.43 l194.08,57.56 l-1.18,-359.59 h15 c24.46,0 47.46,-9.03 64.77,-25.43 c35.68,-33.82 35.69,-88.84 0.05000000000000001,-122.69 z"/>
  <path class="fil2 str0" d="m1369.2500170898438,993.2599938964843 l-720.16,-202.15 c-81.95,16.48 -165.18,101.78 -234.56,206.27 c466.26,-331.48 781.5,172.48 1229.34,79.56 c-100.87,-5.43 -189.48,-40.5 -274.63,-83.69 z" id="path27"/>
  <path id="rect29" style="fill:#003760" d="m616.5500170898438,317.7200038964844 h58.6 c14.4539,0 26.09,16.8365 26.09,37.75 V543.9899938964844 c0,20.9135 -11.6361,37.75 -26.09,37.75 h-58.6 c-14.4539,0 -26.09,-16.8365 -26.09,-37.75 V355.4700038964844 c0,-20.9135 11.6361,-37.75 26.09,-37.75 z" class="fil2"/>
  <path class="fil5" d="m1014.7100170898439,1047.1399938964844 c-121.8,-64.96 -270.7,-96.33 -458.51,-79.56 c119.96,-50.63 294.19,-64.59 463.87,14.46 c295.97,137.89 621.15,240.55 889.7,47.92 c-152.31,285.81 -441.01,278.28 -895.06,17.19 z" id="path31"/>
  <path class="fil5" d="m1288.3600170898437,206.4999938964844 c-27.97,-33.24 -67.8,-59.85 -124.62,-76.94 c40.98,-0.7400000000000001 93.5,15.59 133.81,58.56 c70.31,74.95 153.28,143.03 254.29,118.21 c-77.97,65.65 -161.43,29.63 -263.48,-99.82 z" id="path33"/>
  <path class="fil5" d="m1345.6400170898437,84.75999389648439 c-17.66,-20.99 -42.81,-37.8 -78.69,-48.59 c25.87,-0.47000000000000003 59.04,9.84 84.5,36.98 c44.4,47.33 96.79,90.32 160.57,74.65 c-49.24,41.46 -101.94,18.72 -166.38,-63.03 z" id="path35"/>
  <path class="fil6" d="m1142.1800170898437,504.90999389648437 h-113.86 c-12.53,0 -22.78,10.25 -22.78,22.78 v138.51 c0,12.53 10.25,22.78 22.78,22.78 h113.86 c12.53,0 22.77,-10.25 22.77,-22.78 V527.6799938964843 c0,-12.53 -10.24,-22.77 -22.77,-22.77 z" id="path37"/>
  <path class="fil5" d="m950.8700170898437,504.90999389648437 h-113.86 c-12.53,0 -22.78,10.25 -22.78,22.78 v138.51 c0,12.53 10.25,22.78 22.78,22.78 h113.86 c12.53,0 22.77,-10.25 22.77,-22.78 V527.6799938964843 c0,-12.53 -10.24,-22.77 -22.77,-22.77 z" id="path39"/>
  <g id="_709385912432">
   <path class="fil2" d="m2297.670017089844,92.45999389648432 c107.47,82.24 176.8,211.82 176.8,357.6 c0,113.52 -42.04,217.2 -111.39,296.38 l-76.85,-92.69 c42.69,-56.68 68.01,-127.19 68.01,-203.61 c0,-101.64 -44.78,-192.81 -115.66,-254.91 l59.09,-102.78 z" id="path41"/>
   <path class="fil5" d="m2024.400017089844,-0.0000061035156022626325 c76.16,0 147.89,18.94 210.76,52.33 l-57.64,100.26 c-48.14,-26.27 -103.35,-41.2 -162.05,-41.2 c-187.09,0 -338.76,151.67 -338.76,338.76 c0,187.09 151.67,338.76 338.76,338.76 c83.74,0 160.36,-30.4 219.49,-80.74 l74.67,90.04 c-77.65,63.69 -176.97,101.93 -285.23,101.93 c-248.57,0 -450.07,-201.5 -450.07,-450.07 c0,-248.57 201.5,-450.07 450.07,-450.07 z" id="path43"/>
  </g>
  <path id="circle46" style="fill:#e0f0ff" d="m2313.5901170898437,450.0699738964844 a289.19,289.19 0 0 1 -289.19,289.19002 a289.19,289.19 0 0 1 -289.19,-289.19002 a289.19,289.19 0 0 1 289.19,-289.19 a289.19,289.19 0 0 1 289.19,289.19 z" class="fil7"/>
  <path class="fil4" d="m2154.5100170898436,326.1399938964844 v-16.54 c9.13,0 16.54,-7.41 16.54,-16.54 v-41.34 h16.54 v41.34 c0,18.26 -14.81,33.07 -33.07,33.07 v0 z" id="path48"/>
  <path id="polygon50" style="fill:#9ecf84;fill-rule:nonzero" d="m1865.110017089844,450.15999389648437 l16.54,214.98 h264.59 l16.53,-214.98 z" class="fil8"/>
  <path id="polygon52" style="fill:#003760;fill-rule:nonzero" d="M2013.9400170898439,450.15999389648437 H1848.5800170898438 V400.54999389648435 h165.36 z" class="fil4"/>
  <path id="polygon54" style="fill:#003760;fill-rule:nonzero" d="m2179.3100170898438,450.15999389648437 h-66.15 V400.54999389648435 h66.15 z" class="fil4"/>
  <path id="polygon56" style="fill:#cce5bd;fill-rule:nonzero" d="m2113.1600170898437,532.8499938964844 h-99.22 V400.54999389648435 h99.22 z" class="fil9"/>
  <path id="polygon58" style="fill:#a9abae;fill-rule:nonzero" d="m2088.360017089844,532.8499938964844 h-16.54 v-82.69 h16.54 z" class="fil10"/>
  <path id="polygon60" style="fill:#a9abae;fill-rule:nonzero" d="m2055.290017089844,532.8499938964844 h-16.54 v-49.61 h16.54 z" class="fil10"/>
  <g id="_709385902448">
   <path id="polygon62" style="fill:#e0f0ff;fill-rule:nonzero" d="M2137.9700170898436,425.3599938964844 V400.54999389648435 h16.54 v24.81 z" class="fil11"/>
   <path id="polygon64" style="fill:#e0f0ff;fill-rule:nonzero" d="M1972.6000170898437,425.3599938964844 V400.54999389648435 h16.54 v24.81 z" class="fil11"/>
   <path id="polygon66" style="fill:#e0f0ff;fill-rule:nonzero" d="M1939.5300170898436,425.3599938964844 V400.54999389648435 h16.54 v24.81 z" class="fil11"/>
   <path id="polygon68" style="fill:#e0f0ff;fill-rule:nonzero" d="M1906.4600170898439,425.3599938964844 V400.54999389648435 h16.53 v24.81 z" class="fil11"/>
   <path id="polygon70" style="fill:#e0f0ff;fill-rule:nonzero" d="M1873.380017089844,425.3599938964844 V400.54999389648435 h16.54 v24.81 z" class="fil11"/>
  </g>
  <path id="polygon73" style="fill:#003760;fill-rule:nonzero" d="m2063.5500170898435,293.05999389648434 h66.15 v33.08 h-66.15 z" class="fil4"/>
  <path id="polygon75" style="fill:#003760;fill-rule:nonzero" d="M2212.3900170898437,226.91999389648436 L2179.3100170898438,218.64999389648438 v49.61 l33.08,-8.27 z" class="fil4"/>
  <path class="fil8" d="m2096.630017089844,218.64999389648438 h82.68 v49.61 h-24.8 l-24.81,24.8 h-66.15 v-24.8 h-33.07 c0,-27.4 33.07,-49.61 66.15,-49.61 z" id="path77"/>
  <path id="polygon79" style="fill:#9ecf84;fill-rule:nonzero" d="m2129.7000170898436,326.1399938964844 h-66.15 l-16.53,74.41 h99.22 z" class="fil8"/>
  <path class="fil4" d="m2146.2400170898436,665.1399938964844 h-264.59 c1.01,17.83 15.25,32.06 33.07,33.07 h198.44 c17.83,-1.01 32.06,-15.25 33.07,-33.07 v0 z" id="path81"/>
  <path class="fil9" d="m1939.5300170898436,640.3399938964844 h-24.81 c-4.17,0 -7.69,-3.11 -8.2,-7.24 l-8.27,-66.15 l16.41,-2.05 l7.37,58.91 h17.5 v16.54 z" id="path83"/>
  <path id="polygon85" style="fill:#cce5bd;fill-rule:nonzero" d="m1972.6000170898437,640.3399938964844 h-16.53 v-16.54 h16.53 z" class="fil9"/>
  <path id="polygon87" style="fill:#cce5bd;fill-rule:nonzero" d="m2005.6800170898437,640.3399938964844 h-16.54 v-16.54 h16.54 z" class="fil9"/>
  <path id="circle89" style="fill:#003760" d="m1924.0000170898438,319.3000138964844 a41.439999,41.439999 0 0 1 -41.44,41.44 a41.439999,41.439999 0 0 1 -41.44,-41.44 a41.439999,41.439999 0 0 1 41.44,-41.43999 a41.439999,41.439999 0 0 1 41.44,41.43999 z" class="fil2"/>
  <path id="circle91" style="fill:#003760" d="m1992.9999170898436,248.33999389648443 a25.530001,25.530001 0 0 1 -25.53,25.53 a25.530001,25.530001 0 0 1 -25.53,-25.53 a25.530001,25.530001 0 0 1 25.53,-25.53 a25.530001,25.530001 0 0 1 25.53,25.53 z" class="fil2"/>
  <path id="circle93" style="fill:#003760" d="m1996.2199170898439,342.1800238964844 a19.209999,19.209999 0 0 1 -19.21,19.21 a19.209999,19.209999 0 0 1 -19.21,-19.21 a19.209999,19.209999 0 0 1 19.21,-19.21 a19.209999,19.209999 0 0 1 19.21,19.21 z" class="fil2"/>
  <path id="circle95" style="fill:#e0f0ff" d="m1913.080117089844,307.61001389648436 a29.690001,29.690001 0 0 1 -29.69,29.69 a29.690001,29.690001 0 0 1 -29.69,-29.69 a29.690001,29.690001 0 0 1 29.69,-29.69 a29.690001,29.690001 0 0 1 29.69,29.69 z" class="fil7"/>
  <path id="circle97" style="fill:#e0f0ff" d="m1986.2699170898436,241.12997389648433 a18.290001,18.290001 0 0 1 -18.29,18.29 a18.290001,18.290001 0 0 1 -18.29,-18.29 a18.290001,18.290001 0 0 1 18.29,-18.29 a18.290001,18.290001 0 0 1 18.29,18.29 z" class="fil7"/>
  <path id="circle99" style="fill:#e0f0ff" d="m1991.1601170898439,336.7599838964844 a13.76,13.76 0 0 1 -13.76,13.76 a13.76,13.76 0 0 1 -13.76,-13.76 a13.76,13.76 0 0 1 13.76,-13.76 a13.76,13.76 0 0 1 13.76,13.76 z" class="fil7"/>
 </g></g></svg>